<svg xmlns="http://www.w3.org/2000/svg" width="28" height="25" viewBox="0 0 28 25"><style type="text/css">.st0{display:none;} .st1{display:inline;} .st2{fill:#0B70B7;}</style><path class="st1" d="M29 58c-16 0-29-13-29-29s13-29 29-29 29 13 29 29-13 29-29 29zm0-56c-14.9 0-27 12.1-27 27s12.1 27 27 27 27-12.1 27-27-12.1-27-27-27zm3 25c-.3 0-.5-.1-.7-.3-.4-.4-.4-1 0-1.4l11-11c.4-.4 1-.4 1.4 0 .4.4.4 1 0 1.4l-11 11c-.2.2-.4.3-.7.3zm-21 3h-4c-.6 0-1-.4-1-1s.4-1 1-1h4c.6 0 1 .4 1 1s-.4 1-1 1zm1.4-6.9c-.1 0-.3 0-.4-.1l-3.7-1.5c-.5-.2-.8-.8-.5-1.3.2-.5.8-.8 1.3-.5l3.7 1.5c.5.2.8.8.5 1.3-.2.4-.5.6-.9.6zm3.9-5.8c-.3 0-.5-.1-.7-.3l-2.8-2.8c-.4-.4-.4-1 0-1.4.4-.4 1-.4 1.4 0l2.8 2.8c.4.4.4 1 0 1.4-.2.2-.5.3-.7.3zm5.8-3.9c-.4 0-.8-.2-.9-.6l-1.5-3.7c-.2-.5 0-1.1.5-1.3.5-.2 1.1 0 1.3.5l1.5 3.7c.2.5 0 1.1-.5 1.3l-.4.1zm6.9-1.4c-.6 0-1-.4-1-1v-4c0-.6.4-1 1-1s1 .4 1 1v4c0 .6-.4 1-1 1zm6.9 1.4c-.1 0-.3 0-.4-.1-.5-.2-.7-.8-.5-1.3l1.5-3.7c.2-.5.8-.8 1.3-.5.5.2.8.8.5 1.3l-1.5 3.7c-.1.3-.5.6-.9.6zm9.7 9.7c-.4 0-.8-.2-.9-.6-.2-.5 0-1.1.5-1.3l3.7-1.5c.5-.2 1.1 0 1.3.5.2.5 0 1.1-.5 1.3l-3.7 1.5c-.1.1-.2.1-.4.1zm5.4 6.9h-4c-.6 0-1-.4-1-1s.4-1 1-1h4c.6 0 1 .4 1 1s-.4 1-1 1zm-1.7 8.4c-.1 0-.3 0-.4-.1l-3.7-1.5c-.5-.2-.8-.8-.5-1.3.2-.5.8-.8 1.3-.5l3.7 1.5c.5.2.8.8.5 1.3-.1.4-.5.6-.9.6zm-40.6 0c-.4 0-.8-.2-.9-.6-.2-.5 0-1.1.5-1.3l3.7-1.5c.5-.2 1.1 0 1.3.5.2.5 0 1.1-.5 1.3l-3.7 1.5c-.2.1-.3.1-.4.1zm30.3 9.6h-20c-.6 0-1-.4-1-1v-6c0-.6.4-1 1-1h20c.6 0 1 .4 1 1v6c0 .6-.4 1-1 1zm-19-2h18v-4h-18v4zm9-12c-2.8 0-5-2.2-5-5s2.2-5 5-5 5 2.2 5 5-2.2 5-5 5zm0-8c-1.7 0-3 1.3-3 3s1.3 3 3 3 3-1.3 3-3-1.3-3-3-3z"/><path class="st2" d="M28 3.7m-8.6-2.7c-3.2 0-5.7 2.6-5.7 5.8 0 .5.1.9.1 1.3-4.8-.2-9-2.5-11.9-6-.4.8-.7 1.8-.7 2.9 0 2 1 3.8 2.6 4.8-.9 0-1.8-.3-2.6-.7v.1c0 2.8 2 5.2 4.6 5.7-.5.1-1 .2-1.5.2-.4 0-.7 0-1.1-.1.7 2.3 2.9 4 5.4 4-2 1.6-4.4 2.5-7.1 2.5-.5 0-.9 0-1.4-.1 2.4 1.6 5.5 2.6 8.7 2.6 10.6 0 16.3-8.8 16.3-16.5v-.8c1.1-.8 2.1-1.8 2.9-3-1 .5-2.1.8-3.3.9 1.2-.7 2.1-1.9 2.5-3.2-1.1.7-2.3 1.1-3.6 1.4-1.1-1.1-2.6-1.8-4.2-1.8"/></svg>