<svg xmlns="http://www.w3.org/2000/svg" width="238" height="55" viewBox="0 0 238 55"><style type="text/css">.st0{fill-rule:evenodd;clip-rule:evenodd;fill:#0B70B7;} .st1{fill:#0B70B7;}</style><path class="st0" d="M89.9 16c4.1-8 12.2-13 21.6-13 9.4 0 17.5 5 21.6 13h3.3c-4.4-9-13.9-16-25-16s-20.6 7-25 16h3.5zm43.7 22c-3.9 8-12.4 14-22.1 14-9.8 0-18.2-6-22.1-14h-3.3c4.1 10 14 17 25.4 17 11.5 0 21.3-7 25.4-17h-3.3z"/><path d="M238 32v-10h-2l-6 8-6-8h-2v10h2v-7l5 7h2l5-7v7h2zm-19 0l-2-4c1.8-.2 2-1.7 2-3 0-1.4-.7-3-3-3h-9v10h2v-4h6l2 4h2zm-2-7c0 .7-.1 1-1 1h-7v-2h7c.9 0 1 .3 1 1zm-16 7c2.3 0 3-1.6 3-3v-4c0-1.4-.7-3-3-3h-7c-2.3 0-3 1.6-3 3v4c0 1.4.7 3 3 3h7zm1-3c0 .5-.2 1-1 1h-7c-.8 0-1-.5-1-1v-4c0-.5.2-1 1-1h7c.8 0 1 .5 1 1v4zm-22 3v-4h8v-2h-8v-2h9v-2h-11v10h2zm-4 0l-2-4c1.8-.2 2-1.7 2-3 0-1.4-.7-3-3-3h-9v10h2v-4h6l2 4h2zm-2-7c0 .7-.1 1-1 1h-7v-2h7c.9 0 1 .3 1 1zm-13 7v-2h-9v-2h8v-2h-8v-2h9v-2h-11v10h11zm-17-4c2.2 0 3-.6 3-2v-2c0-1.4-.8-2-3-2h-8v10h2v-4h6zm1-3c0 .6-.2 1-1 1h-6v-2h6c.8 0 1 .4 1 1z"/><path class="st1" d="M126 41v-4h-23v-6c0-1.6 1.8-2 4-2h10c6 0 9-3.2 9-7v-1c0-3.8-3-7-9-7h-17v4h17c2.2 0 4 1.4 4 3v1c0 1.6-1.8 3-4 3h-10c-6 0-8 2.2-8 6v10h27z"/><path d="M85 32c2.2 0 3-1.6 3-3s-.8-3-3-3h-6c-.8 0-1-.4-1-1s.2-1 1-1h9v-2h-9c-2 0-3 1-3 3 0 1.4.8 3 3 3h6c.8 0 1 .4 1 1s-.2 1-1 1h-9v2h9zm-15 0c2.2 0 3-1.6 3-3s-.8-3-3-3h-6c-.8 0-1-.4-1-1s.2-1 1-1h9v-2h-9c-2 0-3 1-3 3 0 1.4.8 3 3 3h6c.8 0 1 .4 1 1s-.2 1-1 1h-9v2h9zm-12 0v-2h-9v-2h8v-2h-8v-2h9v-2h-11v10h11zm-17 0c2.2 0 3-1.6 3-3s-.8-3-3-3h-6c-.8 0-1-.4-1-1s.2-1 1-1h9v-2h-9c-2 0-3 1-3 3 0 1.4.8 3 3 3h6c.8 0 1 .4 1 1s-.2 1-1 1h-9v2h9zm-15 0c2.2 0 3-1.6 3-3s-.8-3-3-3h-6c-.8 0-1-.4-1-1s.2-1 1-1h9v-2h-9c-2 0-3 1-3 3 0 1.4.8 3 3 3h6c.8 0 1 .4 1 1s-.2 1-1 1h-9v2h9zm-11 0l-7-10h-1l-7 10h2l5.5-8 5.5 8h2z"/></svg>