<svg xmlns="http://www.w3.org/2000/svg" width="80" height="64" viewBox="0 0 80 64"><style type="text/css">.st0{display:none;}</style><path d="M40 61c-16 0-29-13-29-29s13-29 29-29 29 13 29 29-13 29-29 29zm0-56c-14.8 0-27 12.1-27 27s12.1 27 27 27 27-12.1 27-27-12.1-27-27-27zm3 25c-.3 0-.5-.1-.7-.3-.4-.4-.4-1 0-1.4l11-11c.4-.4 1-.4 1.4 0 .4.4.4 1 0 1.4l-11 11c-.1.2-.4.3-.7.3zm-21 3h-4c-.6 0-1-.4-1-1s.4-1 1-1h4c.6 0 1 .4 1 1s-.4 1-1 1zm1.4-6.9c-.1 0-.3 0-.4-.1l-3.7-1.5c-.5-.2-.8-.8-.5-1.3.2-.5.8-.8 1.3-.5l3.7 1.5c.5.2.8.8.5 1.3-.1.4-.5.6-.9.6zm3.9-5.8c-.3 0-.5-.1-.7-.3l-2.8-2.8c-.4-.4-.4-1 0-1.4.4-.4 1-.4 1.4 0l2.8 2.8c.4.4.4 1 0 1.4-.2.2-.4.3-.7.3zm5.9-3.9c-.4 0-.8-.2-.9-.6l-1.5-3.7c-.2-.5 0-1.1.5-1.3.5-.2 1.1 0 1.3.5l1.5 3.7c.2.5 0 1.1-.5 1.3-.2 0-.3.1-.4.1zm6.8-1.4c-.6 0-1-.4-1-1v-4c0-.6.4-1 1-1s1 .4 1 1v4c0 .6-.4 1-1 1zm6.9 1.4c-.1 0-.3 0-.4-.1-.5-.2-.7-.8-.5-1.3l1.5-3.7c.2-.5.8-.8 1.3-.5.5.2.8.8.5 1.3l-1.5 3.7c-.1.3-.5.6-.9.6zm9.8 9.7c-.4 0-.8-.2-.9-.6-.2-.5 0-1.1.5-1.3l3.7-1.5c.5-.2 1.1 0 1.3.5.2.5 0 1.1-.5 1.3l-3.7 1.5c-.2.1-.3.1-.4.1zm5.3 6.9h-4c-.6 0-1-.4-1-1s.4-1 1-1h4c.6 0 1 .4 1 1s-.4 1-1 1zm-1.6 8.4c-.1 0-.3 0-.4-.1l-3.7-1.5c-.5-.2-.8-.8-.5-1.3.2-.5.8-.8 1.3-.5l3.7 1.5c.5.2.8.8.5 1.3-.2.4-.5.6-.9.6zm-40.7 0c-.4 0-.8-.2-.9-.6-.2-.5 0-1.1.5-1.3l3.7-1.5c.5-.2 1.1 0 1.3.5.2.5 0 1.1-.5 1.3l-3.7 1.5c-.1.1-.2.1-.4.1zm30.3 9.6h-20c-.6 0-1-.4-1-1v-6c0-.6.4-1 1-1h20c.6 0 1 .4 1 1v6c0 .6-.4 1-1 1zm-19-2h18v-4h-18v4zm9-12c-2.8 0-5-2.2-5-5s2.2-5 5-5 5 2.2 5 5-2.2 5-5 5zm0-8c-1.7 0-3 1.3-3 3s1.3 3 3 3 3-1.3 3-3-1.3-3-3-3z"/><path class="st0" d="M70 60h-2v-28c0-2.2-1.8-4-4-4h-6c-2.2 0-4 1.8-4 4v28h-2v-48c0-2.2-1.8-4-4-4h-6c-2.2 0-4 1.8-4 4v48h-2v-18c0-2.2-1.8-4-4-4h-6c-2.2 0-4 1.8-4 4v18h-10v-8h4c1.1 0 2-.9 2-2s-.9-2-2-2h-4v-6c1.1 0 2-.9 2-2s-.9-2-2-2v-6h4c1.1 0 2-.9 2-2s-.9-2-2-2h-4v-6c1.1 0 2-.9 2-2s-.9-2-2-2v-6h4c1.1 0 2-.9 2-2s-.9-2-2-2h-4v-6c0-1.1-.9-2-2-2s-2 .9-2 2v58c0 2.2.8 4 3 4h59c1.1 0 2-.9 2-2s-.9-2-2-2zm-12-28h6v28h-6v-28zm-16-20h6v48h-6v-48zm-16 30h6v18h-6v-18zM40 43c7.4 0 14.6 4.1 18.1 7.6 1.2 1.2 1.2 3.2 0 4.5-.6.6-1.4.9-2.2.9s-1.6-.3-2.2-.9c-2.8-2.8-8.3-6.1-13.7-6.1s-10.9 3.4-13.6 6c-.6.6-1.4 1-2.2 1-.8 0-1.6-.3-2.2-.9-1.2-1.2-1.2-3.2 0-4.5 3.4-3.6 10.6-7.6 18-7.6m0-2c-7.8 0-15.4 4.1-19.5 8.2-1 1-1.5 2.3-1.5 3.7s.5 2.7 1.5 3.7 2.3 1.5 3.7 1.5c1.4 0 2.7-.5 3.7-1.5 2.1-2.3 7.2-5.6 12.1-5.6s10 3.3 12.2 5.5c1 1 2.3 1.5 3.7 1.5s2.7-.5 3.7-1.5 1.5-2.3 1.5-3.7-.5-2.7-1.5-3.7c-4.2-4-11.8-8.1-19.6-8.1zm0-15.1c14.3 0 21.1 4.5 27.6 11 1.2 1.2 1.2 3.2 0 4.5-.6.6-1.4.9-2.2.9-.8 0-1.6-.3-2.2-.9-5.7-5.6-11-9.5-23.2-9.5s-17.5 3.9-23.1 9.4c-.6.6-1.4.9-2.2.9s-1.6-.3-2.2-.9c-1.2-1.2-1.2-3.2 0-4.5 6.4-6.2 13.2-10.8 27.5-10.9m0-1.9c-14.5 0-21.8 4.4-29 11.6-1 1-1.5 2.3-1.5 3.6 0 1.4.5 2.7 1.5 3.7s2.3 1.5 3.6 1.5c1.4 0 2.7-.5 3.7-1.5 5-5 9.8-8.8 21.7-8.8s16.6 3.8 21.7 8.8c1 1 2.3 1.5 3.7 1.5 1.4 0 2.7-.5 3.7-1.5s1.5-2.3 1.5-3.6c0-1.4-.5-2.7-1.5-3.7-7.3-7.2-14.6-11.6-29.1-11.6zm0-16.1c17.1 0 27.2 5.5 37.1 15.3 1.2 1.2 1.2 3.2 0 4.5-.6.6-1.4.9-2.2.9-.8 0-1.6-.3-2.2-.9-8.8-8.6-17.3-12.8-32.7-12.8s-23.9 4.2-32.6 12.8c-.6.6-1.4.9-2.2.9s-1.6-.3-2.2-.9c-1.2-1.2-1.2-3.2 0-4.5 9.8-9.8 19.9-15.3 37-15.3m0-2c-18.7 0-28.9 6.4-38.5 15.9-1 1-1.5 2.3-1.5 3.6 0 1.4.5 2.7 1.5 3.7s2.3 1.5 3.6 1.5c1.4 0 2.7-.5 3.7-1.5 7.6-7.5 15.4-11.2 31.2-11.2 15.7 0 23.6 3.7 31.2 11.2 1 1 2.3 1.5 3.7 1.5 1.4 0 2.7-.5 3.7-1.5s1.5-2.3 1.5-3.6c0-1.4-.5-2.7-1.5-3.7-9.7-9.5-19.9-15.9-38.6-15.9z"/></svg>